<?xml version="1.0" encoding="UTF-8"?>
<svg id="Layer_1" data-name="Layer 1" xmlns="http://www.w3.org/2000/svg" viewBox="0 0 518.29 345.85">
  <defs>
    <style>
      .cls-1 {
        fill: #fff;
      }
    </style>
  </defs>
  <g id="zJGa2f">
    <g>
      <path d="M495.17,53.74l-4.73-4.54c-4.34-4.17-12.43-2.16-15.44,1.06l-4.55,4.86-15.3,20.67c-.47.24-1.43.93-1.6.59l-.88-1.68,7.91-26.77c.96-3.39.79-6.7-1.28-9.54l-5.98-8.22c-2.05-2.81-5.2-3.84-8.44-4.58-3.06-.7-5.83-.79-8.5,1.32-2.24,1.77-4.14,4.34-5.22,7.19l-8.93,23.5-3,7.27c-.24.57-1.99.85-2.26.28l-11.53-24.57-2.18-7.1c-1.37-4.46-4.12-7.58-8.44-9.06-4.74-1.62-9.44-1.71-14.22.02-3.26,1.17-6.55,2.36-9.23,4.57-2.49,2.06-4.33,5.18-3.85,8.47.67,4.58,2.13,8.87,3.85,13.13l4.61,11.43,5.32,15.67c.44,1.29.38,3.08-.32,4.31-1.31-.47-2.82-1.47-3.69-2.65-6.5-8.77-12.41-17.78-17.29-27.57-1.54-3.09-3.07-5.8-6.6-6.83-2.45-2.33-5.93-2.57-8.8-.75-6.24.81-10.98,4.95-12.62,10.96-.96,3.54-.36,6.86,1.69,10l7.05,10.76c4.23,6.46,8.74,12.46,13.45,18.61,1.76,4.1,3.75,7.74,7.17,10.64,2.92,4.28,8.08,12.33,5.98,14.74-2.49,2.84-15.57,2.4-22.4,2.66-6.76.25-13.26,1.06-19.96.66-4.6-.28-8.61-1.91-12.06-4.83l-8.45-7.15c-2.15-1.82-3.72-4.1-4.9-6.65-1.06-2.29-2.52-4.23-4.07-6.21l-5.46-6.99c-2.93-3.75-6.31-6.55-10.58-8.63-3.63-1.78-7.33-3.28-11.63-3.18-8.02.18-16.28.52-23.9,3.46-7.02,2.71-12.93,8.13-17.49,13.89-2.18,2.74-3.76,5.31-6.33,7.62-8,7.19-5.94,13.42-15.23,15.11-4.69.85-9.23,1.42-14.07,1.59l-16.66.58c-3.17.11-6.18,1.14-9.23.28-3.88-1.09-6.55-4.46-5.75-8.63.59-3.06,1.78-6.25,3.52-8.9l11.29-17.24,9.05-13.7c1.84-2.79,3-6.04,3.5-9.37l1.95-13.02c.32-2.17-2.48-3.55-3.66-4.7-3.14-3.07-6.5-4.64-11.03-4.29-2.37.18-5.59.42-7.27,2.44-2.91,3.49-5.22,7.26-7.44,11.26-2.74,4.94-13.12,22.31-15.08,20.1-1.82-2.05.67-12.03,1.72-17.73l2.64-14.43c1.96-10.69-7.38-19.29-18.13-20.67-3.23-.42-5.92,1.56-8.61,2.85-3.73,1.8-6.27,4.77-6.54,9.12-.29,4.59-1.44,8.84-2.57,13.35-1.55,6.16-4.4,21.55-7.03,22.08-1.82.37-4.72-8.63-6.25-12.99-1.61-4.6-2.78-8.97-3.61-13.78-.45-2.57-1.18-5.14-2.2-7.55-2.1-4.95-7.18-8.45-12.62-7.79-4.9.59-9.2,2.57-13.56,4.67-3.58,1.73-6.99,4.17-8.41,8.09-.94,2.6-.48,5.86.05,8.59l2.14,10.94,1.09,5.41c.07.36-.43,1.4-.75,1.36-1.53-.17-5.96-4.72-7.69-7.01-3.02-3.98-5.54-7.7-8.75-11.42-1.7-1.96-4.48-2.26-6.87-2.92-2.75-.77-5.37-1.36-7.89.26l-6.22,3.98c-2.16,1.38-3.65,3.34-3.39,6.12l.8,8.41c.53,5.61,3.05,9.43,5.77,13.96,2.49,4.14,4.76,7.95,8,11.69,2.48,2.85,4.32,6.33,6.56,9.45,3.82,5.35,6.39,11.06,9.54,16.77,2.16,3.92,5.35,7.12,6.72,11.47,1.18,3.73,2.68,7.08,4.88,10.31,2.85,4.2,2.7,8.12,5.69,12.11,2.42,3.22,3.42,6.48,4.53,10.31.82,2.84,3.25,5.32,4.18,8.16l2.2,6.75c2.63,6.32,6.58,11.52,10.56,17,5.41,7.45,9.86,15.17,13.4,23.61,3.62,8.64.63,12.29,2.22,16.48,2.82,7.42,1.3,16.82,4.93,26.88,1.57,4.34,7.34,6.9,11.6,6.51l14.03-1.29c7.88-.72,11.65-6.19,20.48-8.07,7.36-1.56,15.05-1.63,22.26.74,4,1.31,7.81,2.82,11.91,3.56,3.69.67,6.21,2.63,8.93,4.98,4.8,4.16,8.68,8.8,11.04,14.86l3.72,9.55c.97,2.06,1.58,4.1,1.91,6.14l-.41,3.08c-.07.4-.14.85-.19,1.34-.59,6.04,1.65,18.31,28.89,19.94,36.32,2.17,43.31-5.68,47.99-5.7,4.67-.02,14.01-4,14-21.74.02,0,.03,0,.05,0,.2-1.35.47-2.71.87-4.1,2.1-7.3,5.18-14,9.64-19.86,5.25-6.89,13.32-10.42,21.91-9.36,9.34,1.15,18.39-.98,30.8,1.42,5.18,1.01,9.77,2.23,15.14,2.3,4.6.06,9.32.35,13.77,1.27,5.31,1.1,10.2,1.4,15.37-.28l9.72-3.15c8.55-3.72,9.2-13.21,9.77-22.47.27-4.43,1.46-8.57,2.59-12.82.9-3.38,1.79-6.7,3.93-9.51,3.81-5,6.11-10.5,8.89-16.08,2.72-5.45,4.85-10.49,5.71-16.65.71-5.09,1.4-10.32,2.97-15.22,1.51-4.71,2.85-8.97,3.5-13.92.42-3.2.92-6.74,2.39-9.56,1.91-3.66,2.81-7.16,4.32-10.95l6.3-15.89,8.68-17.6,7.09-12.9,6.2-15.65c2.4-6.05,2.74-15.47-1.09-19.14ZM317.5,177.88c9.61-10.64,14.28-8.38,23-13.08,2.32-1.25,5.37-1.94,8.08-2.05l14.57-.59c8.73-.35,22.1,4.75,27.15,11.69,4.57,6.28,7.75,13.52,8.83,21.34l-.12,10.59c-.04,3.92-1.52,7.07-4.08,9.94-2.14,2.39-4.76,3.66-8.17,3.63l-13.32-.1-13.16.1-18.91-.59-17.3-1.1c-6.5-.41-12.99-1.53-19.03-3.48-4.98-1.61-6.34-5.94-5.16-10.58,2.43-9.49,4.44-11.14,10.4-17.74l7.22-7.99ZM307.32,158.08c.8-.61,1.83-1.7,2.08-2.44l.3-.9c.06-.18.55-.2.73-.18,1.28.13-1.95,2.92.04,5.69l-1.64,3.69c-.61,1.37-1.54,3.09-2.89,3.62l-3.4,1.34-4.62.56,2.44-5.01c.88.33,1.36,1.17,2,1.93l1.01,1.19c.28.33,1.26-.51,1.49-.99l2.55-5.26c-.05-.83-.7-2.78-.1-3.24ZM482.58,68.96c-2.03.81-3.34,2.64-3.1,4.99.29,2.96-.63,6.17-3.45,7.65-1.8.95-3.63,2.56-3.48,4.82.38,5.66-6.71,4.56-6.37,11.42-1.67,1.26-2.27,3.15-1.81,5,.43,2.85-1.33,4.67-3.42,5.93-2.64,1.6-3.15,4.26-1.55,6.81,1.47,2.34-3.98,5.11-3.16,9.08.4,1.94-.36,3.35-1.46,4.75-.48.6-1.02,2.38-1.81,2.67-2.06.77-3.26,2.61-3.59,4.98-.24,1.68-.97,3.51-.34,5.15,1.95,5.06-3.73,5.7-6.17,13.17-1.06,3.24-4.35,1.31-5.81,4.66-.59,1.36-.18,3.35,1.09,4.1,1.33.79,1.78,1.46,2.19,2.84l.8,2.69c.05.17,0,.92-.14.83l-.77-.47c-1.4-.29-3.4-1.15-4.47-2.13-.33-.3-1.76.36-1.63.77l.65,2.04-.51,5.65-4.42,3.48c-.61.48-1.18,2.11-.96,2.8.8,2.59,4.54,1.57,3.83,4.27-1.25,4.74-5.33,4.22-5.92,7.6-.39,2.23,2.87,2.9,3.15,4.02.47,1.83-2.93,3.76-3.85,7.82l-2.65,1.83c-.99.68-1.81,2-1.95,3.19-.14,1.15,1.43,2.49,2.07,3.41.78,2.15-1.78,3.93-3.12,4.94-2.68,2.01-2.47,4.98-3.09,7.88l-3.08,8.34-1.57,4.47c-.81,2.3-3.79,4.08-5.77,5.5-1.52,1.24-2.18,2.78-2.2,4.57-3.75,4.01-7.06-.53-11.34.67-3.21.9-6.59.15-9.35-1.7-2.24-1.5-4.39-1.69-7.1-2.16l-8.06-1.39c-6.21-1.07-11.01,1.52-16.99-.78-2.61-1-4.66-1.12-7.4,0-1.52.62-4.67,1.18-5.93.02-.99-.91-1.75-2.01-2.57-2.34-1.26-.5-3.1.02-4.02.8-5.02,4.27-9.22,1.35-12.38,3.69-1.92,1.42-3.72,2-6.14,2.48l-3.32,2.28c-3.33.41-5.32,2.21-6.44,5.38-.91,2.58-6.96,5.42-8.4,9.12-.73,1.87-1.19,3.7-2.66,5-4.69,4.14,0,6.75-3.82,13.02-1.37,2.25-.83,3.84.07,5.98h-.01s-20.33-.21-20.33-.21l-12.13,4.17c-3.4-.6-5.7-.96-5.7-.96l-13.28-.33-4.29,2.04-.21-.22c.11-.13.23-.26.36-.38.16-.59.28-2.24-.19-2.6-.47-.35-1.24-.43-2.28-.67-2.49-.6-.66-6.45-2.28-9.34-.96-1.71-1.75-3.26-2-5.15-.28-2.07-1.1-3.59-2.41-5.18l-4.44-5.41c-4.92-6-10.17-7.68-13.36-13.42-.77-1.39-3.37-1.7-4.65-2.34l-7.5-3.79c-1.5-.76-3.24-1.85-4.93-1.98-3.08-.23-5.78-.85-8.31-2.55-2.09-1.4-4.44-2.13-6.97-1.95-3.09.23-5.64-.45-8.49-1.8-1.1-.52-2.96.17-4.23.66-2.31.89-5.3.2-7.58.88l-8.65,2.58-10.36,3.71-6.96,2.05c-2.06.61-4.66.64-5.5-1.84-.77-2.27,3.53-4,2.27-6.69-.35-.75-1.52-1.17-2.53-1.53-2.33-.82-2.54-4.11-1.52-6.08,2.38-4.58-2.68-6.6-2.44-10.74.17-2.87-.04-4.99-1.85-7.14-1.09-1.3-1.57-3.06-2.48-4.63l-1.79-3.08c-2.56-4.41,2.03-7.15-2.68-9.02-1.66-.66-3.41-2.84-3.47-4.73-.07-2.33-.58-4.33-2.45-5.71-2.37-1.75-3.4-3.99-4.55-6.66-.88-2.04-2.93-3.92-2.89-6.34.03-2.18.05-4.11-1.51-5.75-1.46-1.54-3.78-3.79-4.01-5.96-.39-3.64-1.54-5.79-3.55-8.75l-2.72-5.23c-1.8-3.46,1.12-5.28.83-6.9-.11-.62-1.16-1.7-1.76-1.88-3.45-1.07-6.88-4.7-6.61-8.33.37-4.83-5.4-5.25-7.08-10.52-.55-1.73-1.12-3.18-2.29-4.49-3.08-3.45-1.44-5.73-4.6-8.83-1.55-1.52-3.98-3.7-4.12-5.92-.16-2.5-.14-4.36-2.94-5.38-1.72-.62-4.7-2.17-4.69-4.44.01-2.75-.96-4.59-3.75-5.33-1.81-.48-3.72-2.44-3.29-4.48.43-2.07-.12-3.91-2.36-4.54-2.24-.63-4.7-2.88-4.04-5.47.24-.92.88-2.54.53-3.45-.29-.75-1.33-1.5-2.36-2.2-2.03-1.37-3.28-4.87-2.14-7.24.92-1.92,4.18-1.42,5.59-.07,2.94,2.81,5.37,5.88,7.79,9.14l4.39,5.92c1.2,1.62,3.4,3.22,4.96,4.74,1.61,1.57,4.02,2.71,5.1,4.62,1.55,2.73,3.3,5.18,6.5,6.06,1.87-1.06,3.63-1.34,5.95-.7,2.49-.78,5.41-4.36,4.12-7.11-1.12-2.38-2.58-4.56-1.88-7.37.15-.62-.19-2.2-.58-2.76-1.16-1.66-1.62-3.91-2.16-5.86l-1.64-5.97c-.72-2.63-2.34-5.17-2.67-7.96-.68-5.72,2.92-5.47,6.34-9.22.53-.58,2.21-.78,2.41-.07.76,2.75,1.94,4.31,3.36,6.62.65,1.06.97,3.17,1.93,4.21,3.07,3.32-.11,7.13,4.92,12.96,1.72,1.99,2.24,4.02,2.84,6.62.5,2.2,2.33,4.25,3.43,6.22l3.53,6.31c.65,1.16,1.2,2.66,2.04,3.2,1.19.76,3.21.8,4.06.06,1.94-1.68,3.49-1.03,5.61-.8,4.26.46,6.53-8.69,6.59-14.31,1.17-3.02,2.61-5.92,4.2-8.87.08-3.66.61-7.13,2.39-10.46,2.07-3.84-.67-7.17,2.25-10.1,1.91-1.91,1.86-3.52.96-6.09.12-1.16,1.98-2.5,3.14-2.67,2.37-.35,6.92,2.11,7.65,4.33,1.16,3.52-4.77,4.54-1.92,9.3,1.36,2.27.35,5.18-1.18,7.22-1.63,2.18-1.94,4.38-.93,6.84,2.26,5.54-5.53,8.49-3.33,12.71,2.62,5.02.15,8.22,1.21,9.87,1.21,1.88,3.16,3.22,4.72,4.66,2.29,2.12,5.22,2.85,7.82.76l4.67-3.76c1.72-1.39,2.77-3.81,4.31-5.45,2.13-2.26,4.13-4.47,5.9-6.99l6.42-9.17,4.29-6.41c1.04-1.55,1.86-3.32,4.06-3.56.82-.09,2.25,1.22,1.97,1.91-2.46,3.83,1.82,7.11-3.2,9.46-2.51,1.18-4.12,3.92-3.32,5.07.36.51,1.28,1.07,2.11,1.64-.3,5.35-8.61,4.36-7.64,7.88.24.88.56,1.93.48,2.51-.09.66-1.48,1.36-2.01,1.8l-4.65,3.84c-1.4,1.16-1.15,2.5-.72,4.3.7,2.98-6.11,2.72-6.35,6.32l1.2,1.62c-2.63,2.51-7.43,3.06-7.35,7.5.04,1.89-.59,3.42-2.26,4.48-2.03,1.28-3.14,4.29-1.29,6.13,1.51,1.5,2.32,3.22,1.74,5.42-1.12,4.28,3.91,6.64,5.29,6.4,2.1-.36,4.23-.15,6.17.78,2.12,1.01,4.41.08,6.63-.21,5.08-.66,10.2.2,15.32-.37l9.22-1.02c3.83-.43,7.27-.63,11.05.44,3.21.91,5.59-1.83,11.39-2.51,1.73-.2,3.04.96,4.63,1.72,2.44,1.16,4.53-4.72,6.6-6.85l4.4-4.55,5.96-5.66c1.68-1.6,4.47-2.5,5.33-4.85.95-2.59,2.09-4.78,4.61-6.15,1.7-1.05,2.89-2.52,3.57-4.37l5.29-4.52c2.2-1.88,4.28-3.05,7.29-3.07l9.72-.04c8.22-.04,14.81,1.94,19.42,8.82l4.28,6.39-4.33,3.94c-4.58.9-7.53-2.57-11.46-.47-5.6,2.98-7.62-.24-10.97.97-5.12,1.86-6.58-1.42-11.92.56l-4.99,1.85-4.3,1.54-2.71,2c-1.76.17-3.77,1.44-3.64,3.48.05.75,2.01.84,2.69.55l5.08-2.17c2.34-1,4.46-2.13,6.95-1.23.92.33,2.76.18,3.72-.03,3.57-1.26,7.1-1.55,10.69-.79,2.73-1.34,5.52-1.45,8.32-.54l4.35.64c3.12-.36,6,.34,8.65,2.23,3.69-.43,7.35.08,10.39,2.28,1.86,3.98,5.71,1.43,5.03,6.15.69,1.42,2.88,1.5,4.35,1.6,1.6.11,2.19,2.17,1.74,3.51-1.26,3.75,3.41,4.24,3.85,6.96.47,2.89,1.73,3.62,2.71,8.34.14.67-1.8,1.09-2.33.68-2.01-1.58.51-3.23-1.74-5.16-1.48-1.28-2.18-2.97-3.05-4.65l-3.95-3.13c-1.97-1.56-4.38.47-5.74-2.16-2.01-3.88-5.39,1.14-8.4-.95-2.88-2-3.59,1.37-5.98,1.01l-3.98-.6c-.29-.63-.89-2.01-1.48-2.38-.6-.36-2.16.36-2.66.9-2.35,2.59,1.18,4.39.41,5.47-.99,1.39-2.52,1.15-3.63,2.32-.4.42-.06,1.8-.07,2.56,0,.9-1.45,2.29-1.84,3.24-.69,1.68.51,3.74,1.49,5.25l-.75,4.04c1.03,1.59,1.15,3.13.29,4.81-1.04,2.02,1.31,4.16-.25,5.74l-4.19,4.23-4.17-2.27c-.87-.11-2.53,1.91-2.15,2.76,1.96,4.29,4.87,4.28,6.91,7.55,1.32,1.87,3.75,2.39,5.51.93,3.22.2,5.03-2.18,6.61-4.54,1.45-2.15,2-4.17-.13-6.22-1.3-1.25-1.05-3.29-1.41-4.84-.47-2.03-1.16-3.46-.9-5.75.24-2.14-2.11-3.71.04-5.58.64-.56,1.5-1.23,1.61-1.79.13-.64-.47-2.09-.66-2.86,1.46-3.62,5.5-6.24,9.4-6.79,2.14-1.21,4.26-1.26,6.32-.02,3.2-.08,5.98,1.07,8.09,3.48l2.56.83c.73,2.65,4.01.92,3.98,3.75,0,.64-1.65,1.33-2.26,1.05l-2.87-1.32c-3.66,1.62-5.76-4-8.28-1.25-1.33,1.45-2.7,1.82-4.72,1.38l-3.83,1.25c-1.81-.52-4.51.02-4.59,2.26,1.23,1.59,4.16,2.89,6.16,3.56l5.69,1.92c1.78.6,2.8,1.36,4.64.56,1.64-.72,3.47-.96,5.42-1.27,1.26-.2,2.91-1.12,4.21-.47.65.33-.13,2.14-.57,2.73l-2.52,3.35c-.36.47-.84,1.11-1.2,1.33-.43.26-1.45-.1-2.35-.19-3.01-.31-2.94,6.86-6.62,7.67-.51-1.02-.94-1.88-1.45-2.09-2-.84-3.27,3.9-5.62,4.43-2.51.56-1.92,2.82-2.66,4.22-.83,1.58-3.26,2.45-1.64,5.04-1.01,1.35-2.88,1.94-4.3,2.82-2,1.25-3.6,3.25-6.06,3.81l-4.08-.83c-2.23,1.08-3.66.23-5.28-.93l-6.27-4.49c-.46-.33-1.42-.87-1.89-.99-.46-.12-1.22.97-1.4,1.42-.21.52.18,1.45.71,2.07l2.51,2.95c4.84,5.7,10.54,6.82,12.33,8.12,3.04,2.21,4.21-2.42,7.83-.21-.32,1.9-2.8,3.2-4.57,2.29-2.85-1.46-3.81,2.38-6.56-.27-.59-.57-2.06-.62-3.21-.53-1.37.11-3.43-4.05-5.55-2.5-1,.73-1.3,2.2-.87,3.36.64,1.71,1.47,2.66,3.13,3.21,2.97.98,1.4,4.85,3.29,5.13.54.08,1.65-.29,2.19-.59,1.75-.97,2.98.37,3.79,1.82l.65,1.17c.21.38-1.97,1.28-3.64,5.17-.25.59-1.67,1.34-2.24,1.3-1.98-.17-2.24-4.31-5.3-4.23l-1.98.05c-.44.01-1-1.2-1.01-1.65-.08-5.41-7.04-2.93-4.64-9.02-1-4.16,2.43-5.11,2.41-8.01,0-.87-1.11-2.5-2.02-2.55-4.18,3.33-.49,5.49-3.55,8.24-.33.3-1.22.89-1.61.71-1.49-.67-.44-3.4-2.95-4.96-2.27-1.87-2.7-5.01-1.36-7.55-.21-3.54.41-6.62,1.81-9.92.04-.95-.44-2.12-1.24-2.59-2.41-1.41-2.22,5.17-4.8,5.77l-3.76-1.94c-1.19-2.05-1.3-6.48-3.26-5.76-1.6.59-2.38,1.03-3.71-.13l-2.13.4c-1.99-1.46-4.41-3.73-5.15-6.23.22-1.48.78-3.33-1.24-3.9-.73-.2-2.12-.59-2.65-1.06-1.72-1.51-.34-3.84-1.66-6.14-2.16-3.77-.43-6.5-2.4-7.76-.49-.31-1.75.74-1.89,1.38-.3,1.37-.92,2.3-2.13,3.23l-3.15,2.42c-.16.12-1.1.08-1.06-.12.06-.29.31-.97.62-1.27.79-.73,1.31-2.51.02-3.63-1.2-1.06-2.33-1.14-3.87.04l-2.66,2.03-2.63-2.14c-.53-.43-1.65-1.11-2.24-1.05-2.04.23-3.82,4.84-8.65,2.16-2.16-1.2-4.26-.71-6.43-.19l-5.88,1.41c-5.25,1.26-7.19-1.07-10.27,1.8-3.98,3.72-6.62.13-10.46,3.79-3.98,3.78-8.37.83-10.58,6.35-1.6,4-6.17,4.59-6.27,8.27-.06,2.1-.47,3.46-1.9,4.97-4.83,5.11-.07,7.33-3.19,12.84-2.52,4.44,3.71,5.49,2.69,11.65-1.13,6.84,2.54,7.53,3.86,10.82,2.08,5.21,6.42,3.88,8.2,7.84,1.18,2.63,3.37,4.18,6.31,4.06,5.94-.24,9.85,2.02,13.47,1.45,3.2-.51,6.05-.63,9.22-.12l8.01,1.31c3.94.65,7.89.09,11.79.78,3.68.65,7.19,1.13,10.97,1.07,2.91-.04,5.62.41,8.31,1.41,2.29.86,4.56.68,6.95.52l8.34-.55c4.47-.29,8.81-1.16,12.38-3.71,8.78-6.28,3.5-11.88,7.24-13.54,2.32,1.26,4.79,3.58,5.66,6.02-1.21,3.79,1.46,5.64,5.29,7.26,1.83.78,2.4,1.85,2.76,3.69.33,1.66,2.75,2.12,4.27,1.69,1.3-.37,3.25.61,2.84,1.95-.32,1.04-.8,2.3-.47,3.09.96,2.28,4.57.85,6.02,4,.86,1.88,2.67,2.32,4.51,1.54,4.24-1.8,4.16,6.65,9.75,3.21l5.06-3.12c3.04-1.88,6.04-4.34,8.41-7.08,1.45-1.68,1.84-4.75,4.44-5.62,6.04,1.82,4.5-4.65,9.63-3.53l5.05,1.09c.54,1.35,1.04,2.67,1.8,3.07,3.29,1.7,6.55-4.91,12.38-1.52,1.65,4.29,4.38,1.32,10.61,1.39l7.59.09c3.72.04,7.03-.18,10.65.9,3.04.91,5.88-.77,11.21-.47l11.99.69,7.5-.59c3.63-.29,13.02-4.2,14.18-8.66l1.02-3.95,3.14-6.55c1.26-4.12.43-8.34.11-12.63-.18-2.37,2.58-4.87-.18-7.95-3.07-3.42,1.06-7.09-2.99-10.41-3.09-2.53.78-7.14-3.97-8.52-1.02-.3-2.81-1.55-2.91-2.52-.25-2.43-.92-3.39-2.61-4.89-4.99-4.44-4.14-8.28-9.89-7.58-1.7.21-4.41-1.27-5.37-2.78-1.02-1.61-2.63-3.02-4.49-2.32-3.06,1.15-5.59.87-8.72-.28l-5.44-.68c-2.14-.27-3.69-.9-5.69-.21-5.41,1.87-7.93-1.93-11.51.57-5.69,3.97-6.62-.99-10.62,1.93l-3.87,2.83c-.79.58-2.71-.25-2.69-1.04.05-1.97-1.21-2.9-2.64-3.59-2.82-1.36-2.5-4.28-2.45-6.95.09-4.18-4.64-8.01-4.88-10.31-.05-.48,1.07-1.45,1.56-1.48l4.64-.26c2.24-.12,5.26-.54,7.11.41,2.44,1.24,3.85,1.39,6.41.16,2-.97,5.04-.41,7.36-.18l9.01.91c6.18.62,10.05-1.31,16.84-.44l6.43.83c4.92.63,10.97-1.42,11.11-4.77l.19-4.46c.09-2.18-.35-3.74-2.51-4.49-4.54-1.57-2.06-5.55-5.96-8.21-2.26-1.54-3.51-3.27-4.55-5.87-.97-2.44-4.13-3.17-5-7.33-.78-3.75-5.01-3.53-6.98-7.33,1.43-5.69-5.91-5.41-6.44-8.49-.45-2.61-.93-4.15-3.3-5.46-1.6-.89-3.89-2.34-4.49-4.16l-1.47-4.46c-.21-.63-.02-2.12.28-2.65,1.06-1.9,3.22-.5,6.7-.78,1.41-.12,2.94.88,2.78,2.45-.18,1.73,1.72,2.79,2.15,3.98,1.46,4.02,2.34,5.95,5.96,9.06,1,.86,1.34,2.89,2.04,4.13,1.16,2.03,3.66,3.33,5.06,5.11,1.41,1.79,2.56,3.25,4.55,4.39,2.05,1.17,3.01,2.86,4.33,4.75,1.01,1.45,5.17,2.26,6.6,1.18l3.64-2.75c2.2-1.67,1.29-4.55,1.21-6.87l-.19-5.1c-.94-2.39-1.39-4.16-.96-6.65.6-3.5-2.23-4.79-3.75-9.2l-4.36-12.61c-.79-2.3-1.98-4.59-2.28-7.01-.76-6.16-5.1-7.19-3.35-12.7,1.03-3.25,8.66-6.49,11.84-3.78.97,4.49,5.76,5.23,3.47,9.38-1.02,1.84-.26,3.68,1.53,4.76,4.29,2.58,2.29,5.43,3.99,7.98,2.01,3,4.23,5.99,5.2,9.41.43,1.52.78,2.63,1.46,3.92l3.44,6.45c2.31,4.33-.79,7.71,2.05,9.52,1.26.81,1.54,2.29,1.59,3.92,2.83,2.1,8.23.8,9.41-2.82l1.67-5.16,4.13-11.02,2.02-5.93,4.83-13.94,3.22-7.95c.97-2.4,3.9-3.32,6.09-2.88,2.65.53,3.91,2.54,4.86,4.83,1.3,3.14.57,5.03-1.28,7.77-.65.97-1.01,2.64-2.2,3.54-1.07.81-1.02,2.27-.88,3.68l-2.92,4.02c-.49.67.72,2.5,1.23,3.31l-2.48,7.43-1.48,3.58c-.28.69-.52,2.08-.58,2.99l-.62,9.86c-.15,2.38-2.92,4.26-.92,6.64.78.93,2,1.23,3.38,1.53l4.17.9c3.55.77,5.87-2.01,7.37-4.76,1.95-3.56,5.32-5.94,7.67-9.21l10.43-14.51,5.04-7.01c1.23-1.71,2.6-3.44,4.31-4.54,1.7-1.1,4.37-1.21,5.21.43-.46.85-1.23,2.04-1.28,2.69-.06.73.84,1.97,1.29,2.79.93,1.71-.67,3.81-2.32,4.47ZM289.73,185.25c-.37,1.72-.36,2.59-1.72,4.57l-3.57-3.78,4.51-4.75c1.57.88,1.11,2.42.78,3.96ZM272.33,213.88l-2.41,1.67-1.28-1.14,2.59-2.05c.26-.21,1.14-.13,1.36.1.22.24,0,1.24-.26,1.42ZM215.27,218.34l-13.39-.5-16.89-1.65-15.62-1.27c-4.47-.36-8.84-.31-13.03-1.84-5.82-2.12-9.5-6.67-10.48-12.86-1.06-6.7-.29-13.65,2.41-19.97,2.44-5.73,6.89-9.96,12.69-12.31,7.11-2.89,14.92-4.12,22.64-3.08,5.52.74,10.56,2.63,15.81,4.19,3.17.94,5.75,2.61,8,4.97l6.52,6.85,8.88,9.39c5.33,5.65,8.66,11.77,9.38,19.5.76,8.22-9.24,8.87-16.9,8.58Z"/>
      <path class="cls-1" d="M484.9,64.49c-.45-.82-1.35-2.06-1.29-2.79.06-.65.82-1.83,1.28-2.69-.84-1.65-3.51-1.53-5.21-.43-1.71,1.1-3.08,2.83-4.31,4.54l-5.04,7.01-10.43,14.51c-2.35,3.27-5.72,5.65-7.67,9.21-1.51,2.75-3.83,5.53-7.37,4.76l-4.17-.9c-1.38-.3-2.6-.59-3.38-1.53-2-2.38.77-4.26.92-6.64l.62-9.86c.06-.91.29-2.31.58-2.99l1.48-3.58,2.48-7.43c-.51-.81-1.72-2.64-1.23-3.31l2.92-4.02c-.14-1.42-.19-2.87.88-3.68,1.19-.9,1.54-2.57,2.2-3.54,1.85-2.74,2.59-4.64,1.28-7.77-.95-2.28-2.22-4.3-4.86-4.83-2.19-.44-5.12.48-6.09,2.88l-3.22,7.95-4.83,13.94-2.02,5.93-4.13,11.02-1.67,5.16c-1.17,3.63-6.58,4.93-9.41,2.82-.05-1.62-.33-3.11-1.59-3.92-2.84-1.82.25-5.2-2.05-9.52l-3.44-6.45c-.69-1.29-1.03-2.4-1.46-3.92-.96-3.42-3.19-6.41-5.2-9.41-1.7-2.55.3-5.4-3.99-7.98-1.79-1.08-2.54-2.91-1.53-4.76,2.28-4.14-2.5-4.88-3.47-9.38-3.18-2.71-10.81.53-11.84,3.78-1.75,5.51,2.59,6.54,3.35,12.7.3,2.43,1.49,4.71,2.28,7.01l4.36,12.61c1.52,4.42,4.35,5.7,3.75,9.2-.43,2.49.02,4.26.96,6.65l.19,5.1c.09,2.32.99,5.21-1.21,6.87l-3.64,2.75c-1.43,1.08-5.59.27-6.6-1.18-1.31-1.9-2.28-3.58-4.33-4.75-1.99-1.14-3.14-2.6-4.55-4.39-1.41-1.78-3.9-3.08-5.06-5.11-.71-1.24-1.05-3.28-2.04-4.13-3.62-3.11-4.5-5.04-5.96-9.06-.43-1.19-2.33-2.26-2.15-3.98.17-1.57-1.37-2.57-2.78-2.45-3.48.29-5.64-1.12-6.7.78-.3.54-.49,2.02-.28,2.65l1.47,4.46c.6,1.82,2.88,3.27,4.49,4.16,2.37,1.31,2.84,2.85,3.3,5.46.54,3.08,7.87,2.81,6.44,8.49,1.97,3.8,6.19,3.58,6.98,7.33.87,4.16,4.03,4.89,5,7.33,1.04,2.6,2.28,4.33,4.55,5.87,3.9,2.66,1.42,6.64,5.96,8.21,2.16.75,2.6,2.31,2.51,4.49l-.19,4.46c-.14,3.35-6.18,5.4-11.11,4.77l-6.43-.83c-6.8-.87-10.66,1.06-16.84.44l-9.01-.91c-2.32-.23-5.36-.79-7.36.18-2.56,1.24-3.97,1.09-6.41-.16-1.85-.94-4.86-.53-7.11-.41l-4.64.26c-.49.03-1.61,1-1.56,1.48.25,2.3,4.97,6.13,4.88,10.31-.06,2.67-.38,5.58,2.45,6.95,1.44.69,2.7,1.62,2.64,3.59-.02.78,1.9,1.61,2.69,1.04l3.87-2.83c4-2.92,4.93,2.05,10.62-1.93,3.59-2.5,6.1,1.3,11.51-.57,2-.69,3.55-.06,5.69.21l5.44.68c3.12,1.15,5.65,1.43,8.72.28,1.86-.7,3.47.71,4.49,2.32.95,1.5,3.67,2.98,5.37,2.78,5.75-.69,4.9,3.14,9.89,7.58,1.69,1.51,2.36,2.46,2.61,4.89.1.97,1.89,2.22,2.91,2.52,4.75,1.38.88,5.99,3.97,8.52,4.05,3.32-.08,6.99,2.99,10.41,2.76,3.08,0,5.58.18,7.95.32,4.29,1.15,8.51-.11,12.63l-3.14,6.55-1.02,3.95c-1.15,4.46-10.55,8.37-14.18,8.66l-7.5.59-11.99-.69c-5.34-.31-8.17,1.38-11.21.47-3.62-1.08-6.93-.85-10.65-.9l-7.59-.09c-6.23-.07-8.96,2.9-10.61-1.39-5.82-3.38-9.09,3.22-12.38,1.52-.76-.39-1.26-1.72-1.8-3.07l-5.05-1.09c-5.13-1.11-3.59,5.35-9.63,3.53-2.6.88-2.99,3.94-4.44,5.62-2.37,2.75-5.37,5.21-8.41,7.08l-5.06,3.12c-5.58,3.45-5.51-5.01-9.75-3.21-1.85.79-3.65.34-4.51-1.54-1.45-3.15-5.06-1.72-6.02-4-.33-.79.15-2.05.47-3.09.41-1.34-1.54-2.32-2.84-1.95-1.52.43-3.94-.03-4.27-1.69-.37-1.84-.93-2.91-2.76-3.69-3.83-1.62-6.5-3.47-5.29-7.26-.87-2.44-3.34-4.76-5.66-6.02-3.74,1.66,1.54,7.26-7.24,13.54-3.57,2.55-7.91,3.42-12.38,3.71l-8.34.55c-2.38.16-4.66.33-6.95-.52-2.69-1-5.4-1.45-8.31-1.41-3.78.05-7.29-.43-10.97-1.07-3.89-.68-7.84-.13-11.79-.78l-8.01-1.31c-3.16-.52-6.02-.39-9.22.12-3.63.58-7.54-1.69-13.47-1.45-2.94.12-5.13-1.43-6.31-4.06-1.78-3.96-6.12-2.64-8.2-7.84-1.31-3.3-4.99-3.98-3.86-10.82,1.02-6.15-5.21-7.21-2.69-11.65,3.12-5.51-1.64-7.73,3.19-12.84,1.43-1.51,1.84-2.87,1.9-4.97.1-3.67,4.67-4.26,6.27-8.27,2.21-5.52,6.6-2.57,10.58-6.35,3.85-3.65,6.48-.07,10.46-3.79,3.08-2.88,5.02-.54,10.27-1.8l5.88-1.41c2.17-.52,4.27-1.01,6.43.19,4.83,2.68,6.61-1.93,8.65-2.16.59-.07,1.71.62,2.24,1.05l2.63,2.14,2.66-2.03c1.54-1.18,2.67-1.09,3.87-.04,1.28,1.13.76,2.9-.02,3.63-.31.29-.56.97-.62,1.27-.04.2.91.24,1.06.12l3.15-2.42c1.21-.93,1.84-1.86,2.13-3.23.14-.63,1.4-1.69,1.89-1.38,1.97,1.26.23,3.99,2.4,7.76,1.32,2.3-.06,4.63,1.66,6.14.54.47,1.92.86,2.65,1.06,2.02.56,1.46,2.42,1.24,3.9.74,2.5,3.16,4.77,5.15,6.23l2.13-.4c1.33,1.17,2.1.72,3.71.13,1.96-.72,2.07,3.7,3.26,5.76l3.76,1.94c2.58-.6,2.39-7.19,4.8-5.77.79.47,1.28,1.64,1.24,2.59-1.4,3.3-2.02,6.38-1.81,9.92-1.33,2.54-.9,5.68,1.36,7.55,2.52,1.56,1.47,4.29,2.95,4.96.39.18,1.28-.41,1.61-.71,3.06-2.75-.62-4.91,3.55-8.24.92.05,2.02,1.68,2.02,2.55.02,2.89-3.42,3.85-2.41,8.01-2.4,6.09,4.56,3.61,4.64,9.02,0,.45.57,1.66,1.01,1.65l1.98-.05c3.05-.08,3.32,4.07,5.3,4.23.58.05,1.99-.71,2.24-1.3,1.67-3.89,3.85-4.78,3.64-5.17l-.65-1.17c-.8-1.45-2.04-2.79-3.79-1.82-.54.3-1.65.67-2.19.59-1.9-.28-.32-4.15-3.29-5.13-1.67-.55-2.5-1.5-3.13-3.21-.43-1.17-.13-2.63.87-3.36,2.12-1.55,4.18,2.6,5.55,2.5,1.15-.09,2.62-.04,3.21.53,2.76,2.65,3.71-1.19,6.56.27,1.77.9,4.25-.39,4.57-2.29-3.61-2.22-4.78,2.41-7.83.21-1.79-1.29-7.49-2.42-12.33-8.12l-2.51-2.95c-.53-.62-.91-1.55-.71-2.07.18-.45.93-1.54,1.4-1.42.46.12,1.42.66,1.89.99l6.27,4.49c1.61,1.16,3.05,2.01,5.28.93l4.08.83c2.46-.56,4.06-2.56,6.06-3.81,1.42-.88,3.29-1.47,4.3-2.82-1.63-2.58.81-3.46,1.64-5.04.73-1.4.15-3.66,2.66-4.22,2.35-.53,3.62-5.27,5.62-4.43.5.21.93,1.08,1.45,2.09,3.67-.8,3.61-7.98,6.62-7.67.9.09,1.92.45,2.35.19.35-.22.84-.86,1.2-1.33l2.52-3.35c.44-.59,1.22-2.4.57-2.73-1.3-.66-2.94.26-4.21.47-1.95.32-3.78.55-5.42,1.27-1.84.8-2.86.04-4.64-.56l-5.69-1.92c-2-.67-4.93-1.97-6.16-3.56.08-2.24,2.78-2.78,4.59-2.26l3.83-1.25c2.02.44,3.39.07,4.72-1.38,2.52-2.75,4.62,2.87,8.28,1.25l2.87,1.32c.6.28,2.25-.41,2.26-1.05.03-2.83-3.25-1.1-3.98-3.75l-2.56-.83c-2.11-2.41-4.89-3.56-8.09-3.48-2.07-1.24-4.19-1.19-6.32.02-3.9.55-7.94,3.17-9.4,6.79.18.77.79,2.22.66,2.86-.11.56-.97,1.23-1.61,1.79-2.16,1.87.2,3.44-.04,5.58-.26,2.29.43,3.72.9,5.75.36,1.55.1,3.59,1.41,4.84,2.13,2.05,1.58,4.06.13,6.22-1.58,2.36-3.39,4.73-6.61,4.54-1.76,1.46-4.19.94-5.51-.93-2.04-3.27-4.95-3.26-6.91-7.55-.39-.85,1.28-2.87,2.15-2.76l4.17,2.27,4.19-4.23c1.56-1.58-.79-3.72.25-5.74.87-1.68.74-3.22-.29-4.81l.75-4.04c-.98-1.51-2.18-3.57-1.49-5.25.39-.95,1.83-2.33,1.84-3.24,0-.76-.33-2.14.07-2.56,1.11-1.17,2.64-.93,3.63-2.32.77-1.09-2.76-2.88-.41-5.47.5-.55,2.07-1.27,2.66-.9.6.36,1.19,1.74,1.48,2.38l3.98.6c2.39.36,3.09-3.01,5.98-1.01,3.01,2.09,6.39-2.93,8.4.95,1.36,2.63,3.77.59,5.74,2.16l3.95,3.13c.87,1.68,1.57,3.37,3.05,4.65,2.25,1.94-.28,3.59,1.74,5.16.53.42,2.47,0,2.33-.68-.98-4.72-2.24-5.45-2.71-8.34-.44-2.71-5.11-3.21-3.85-6.96.45-1.34-.14-3.4-1.74-3.51-1.48-.1-3.66-.18-4.35-1.6.69-4.72-3.17-2.17-5.03-6.15-3.04-2.2-6.71-2.7-10.39-2.28-2.65-1.89-5.53-2.59-8.65-2.23l-4.35-.64c-2.8-.92-5.59-.8-8.32.54-3.59-.76-7.12-.47-10.69.79-.96.21-2.79.36-3.72.03-2.49-.9-4.61.23-6.95,1.23l-5.08,2.17c-.68.29-2.64.19-2.69-.55-.14-2.04,1.87-3.31,3.64-3.48l2.71-2,4.3-1.54,4.99-1.85c5.34-1.98,6.8,1.3,11.92-.56,3.35-1.21,5.37,2.01,10.97-.97,3.94-2.1,6.88,1.37,11.46.47l4.33-3.94-4.28-6.39c-4.61-6.88-11.2-8.86-19.42-8.82l-9.72.04c-3.01.01-5.09,1.18-7.29,3.07l-5.29,4.52c-.68,1.85-1.87,3.32-3.57,4.37-2.52,1.37-3.66,3.56-4.61,6.15-.86,2.35-3.64,3.25-5.33,4.85l-5.96,5.66-4.4,4.55c-2.06,2.13-4.16,8.01-6.6,6.85-1.59-.76-2.91-1.93-4.64-1.72-5.79.68-8.18,3.42-11.39,2.51-3.78-1.07-7.22-.87-11.05-.44l-9.22,1.02c-5.12.57-10.24-.29-15.32.37-2.22.29-4.51,1.21-6.63.21-1.95-.93-4.08-1.14-6.17-.78-1.38.24-6.41-2.13-5.29-6.4.58-2.19-.23-3.92-1.74-5.42-1.85-1.84-.74-4.85,1.29-6.13,1.67-1.06,2.29-2.59,2.26-4.48-.09-4.44,4.72-4.99,7.35-7.5l-1.2-1.62c.24-3.59,7.05-3.33,6.35-6.32-.42-1.79-.68-3.14.72-4.3l4.65-3.84c.53-.44,1.93-1.14,2.01-1.8.08-.58-.24-1.62-.48-2.51-.97-3.52,7.34-2.52,7.64-7.88-.83-.57-1.75-1.13-2.11-1.64-.8-1.15.81-3.9,3.32-5.07,5.02-2.35.74-5.63,3.2-9.46.28-.69-1.15-2-1.97-1.91-2.2.24-3.02,2.01-4.06,3.56l-4.29,6.41-6.42,9.17c-1.76,2.52-3.77,4.73-5.9,6.99-1.54,1.64-2.58,4.06-4.31,5.45l-4.67,3.76c-2.59,2.09-5.53,1.36-7.82-.76-1.55-1.44-3.51-2.78-4.72-4.66-1.06-1.64,1.42-4.85-1.21-9.87-2.2-4.21,5.59-7.17,3.33-12.71-1-2.45-.7-4.66.93-6.84,1.53-2.04,2.54-4.95,1.18-7.22-2.84-4.76,3.08-5.78,1.92-9.3-.73-2.21-5.28-4.67-7.65-4.33-1.16.17-3.03,1.52-3.14,2.67.9,2.57.95,4.18-.96,6.09-2.92,2.93-.18,6.26-2.25,10.1-1.78,3.32-2.31,6.8-2.39,10.46-1.59,2.95-3.03,5.85-4.2,8.87-.06,5.62-2.33,14.78-6.59,14.31-2.11-.23-3.66-.88-5.61.8-.85.74-2.86.7-4.06-.06-.84-.53-1.39-2.04-2.04-3.2l-3.53-6.31c-1.11-1.98-2.93-4.03-3.43-6.22-.6-2.6-1.12-4.63-2.84-6.62-5.03-5.83-1.84-9.64-4.92-12.96-.96-1.04-1.28-3.15-1.93-4.21-1.42-2.32-2.6-3.88-3.36-6.62-.2-.71-1.88-.51-2.41.07-3.43,3.75-7.02,3.51-6.34,9.22.33,2.79,1.95,5.33,2.67,7.96l1.64,5.97c.54,1.95,1,4.2,2.16,5.86.39.55.73,2.14.58,2.76-.7,2.81.77,5,1.88,7.37,1.29,2.75-1.63,6.33-4.12,7.11-2.33-.64-4.08-.36-5.95.7-3.2-.88-4.95-3.33-6.5-6.06-1.08-1.91-3.49-3.05-5.1-4.62-1.55-1.52-3.75-3.12-4.96-4.74l-4.39-5.92c-2.42-3.26-4.86-6.33-7.79-9.14-1.41-1.35-4.67-1.85-5.59.07-1.14,2.37.11,5.87,2.14,7.24,1.03.7,2.07,1.45,2.36,2.2.35.91-.29,2.53-.53,3.45-.67,2.6,1.79,4.84,4.04,5.47,2.25.63,2.8,2.47,2.36,4.54-.43,2.04,1.48,4.01,3.29,4.48,2.79.73,3.76,2.57,3.75,5.33,0,2.27,2.97,3.82,4.69,4.44,2.79,1.02,2.77,2.88,2.94,5.38.15,2.22,2.57,4.4,4.12,5.92,3.17,3.1,1.52,5.38,4.6,8.83,1.17,1.3,1.74,2.76,2.29,4.49,1.68,5.27,7.44,5.69,7.08,10.52-.28,3.63,3.15,7.26,6.61,8.33.6.19,1.65,1.27,1.76,1.88.29,1.61-2.63,3.43-.83,6.9l2.72,5.23c2.01,2.97,3.16,5.12,3.55,8.75.23,2.17,2.55,4.42,4.01,5.96,1.55,1.64,1.54,3.57,1.51,5.75-.04,2.42,2.01,4.31,2.89,6.34,1.15,2.67,2.17,4.91,4.55,6.66,1.87,1.38,2.38,3.38,2.45,5.71.05,1.88,1.8,4.07,3.47,4.73,4.72,1.87.12,4.62,2.68,9.02l1.79,3.08c.91,1.57,1.38,3.33,2.48,4.63,1.81,2.15,2.02,4.27,1.85,7.14-.24,4.15,4.81,6.17,2.44,10.74-1.02,1.97-.81,5.27,1.52,6.08,1.01.35,2.19.78,2.53,1.53,1.26,2.69-3.04,4.42-2.27,6.69.84,2.48,3.44,2.45,5.5,1.84l6.96-2.05,10.36-3.71,8.65-2.58c2.28-.68,5.27.01,7.58-.88,1.27-.49,3.13-1.18,4.23-.66,2.85,1.35,5.41,2.03,8.49,1.8,2.53-.19,4.88.54,6.97,1.95,2.52,1.69,5.23,2.32,8.31,2.55,1.68.12,3.43,1.22,4.93,1.98l7.5,3.79c1.28.64,3.88.95,4.65,2.34,3.18,5.74,8.44,7.42,13.36,13.42l4.44,5.41c1.3,1.59,2.13,3.11,2.41,5.18.25,1.88,1.04,3.44,2,5.15,1.63,2.9-.21,8.75,2.28,9.34,1.03.25,1.81.32,2.28.67.47.35.35,2.01.19,2.6-.24.23-.44.47-.64.72,7.72-.61,15.39-.48,23.04.11,11.05-1.09,22.23-1.46,33.35-1.58.31-1.05.37-2.12-.1-3.23-.93-2.2-1.52-3.81-.12-6.11,3.82-6.27-.87-8.88,3.82-13.02,1.47-1.3,1.93-3.12,2.66-5,1.44-3.7,7.49-6.54,8.4-9.12,1.11-3.17,3.11-4.96,6.44-5.38l3.32-2.28c2.42-.49,4.22-1.06,6.14-2.48,3.16-2.34,7.36.58,12.38-3.69.92-.78,2.76-1.3,4.02-.8.83.33,1.58,1.42,2.57,2.34,1.26,1.17,4.41.6,5.93-.02,2.74-1.12,4.79-1,7.4,0,5.98,2.3,10.78-.29,16.99.78l8.06,1.39c2.71.47,4.86.65,7.1,2.16,2.76,1.85,6.13,2.61,9.35,1.7,4.28-1.2,7.59,3.34,11.34-.67.02-1.79.68-3.33,2.2-4.57,1.98-1.41,4.96-3.2,5.77-5.5l1.57-4.47,3.08-8.34c.62-2.9.41-5.87,3.09-7.88,1.34-1.01,3.9-2.78,3.12-4.94-.64-.92-2.21-2.26-2.07-3.41.14-1.19.96-2.5,1.95-3.19l2.65-1.83c.91-4.07,4.31-5.99,3.85-7.82-.29-1.13-3.54-1.8-3.15-4.02.59-3.38,4.67-2.87,5.92-7.6.71-2.7-3.03-1.68-3.83-4.27-.21-.69.36-2.33.96-2.8l4.42-3.48.51-5.65-.65-2.04c-.13-.41,1.3-1.07,1.63-.77,1.07.98,3.06,1.84,4.47,2.13l.77.47c.14.09.19-.66.14-.83l-.8-2.69c-.41-1.38-.86-2.06-2.19-2.84-1.27-.75-1.68-2.73-1.09-4.1,1.46-3.35,4.75-1.42,5.81-4.66,2.43-7.47,8.12-8.11,6.17-13.17-.63-1.64.1-3.47.34-5.15.33-2.37,1.53-4.21,3.59-4.98.79-.3,1.34-2.07,1.81-2.67,1.11-1.4,1.87-2.81,1.46-4.75-.83-3.97,4.63-6.74,3.16-9.08-1.6-2.55-1.09-5.21,1.55-6.81,2.09-1.27,3.86-3.09,3.42-5.93-.47-1.85.14-3.74,1.81-5-.34-6.86,6.75-5.76,6.37-11.42-.15-2.26,1.67-3.87,3.48-4.82,2.82-1.48,3.74-4.69,3.45-7.65-.23-2.35,1.07-4.18,3.1-4.99,1.65-.66,3.26-2.76,2.32-4.47ZM252.72,154.42c-2.06.43-3.34-.02-5.25,1.79l-6.26-.81-5.16-.86-5.95-1.19c-.63-.13-1.82-1.12-1.85-1.75-.03-.64,1.11-1.74,1.8-1.89l4.92-1.05c2.48-.53,4.11-1.07,6.29-2.48,2.31-1.48,6.13-.37,8.33,1.14l4.09-1.26c1.32.95,2.93,2.44,3.79,4.01-1.16,1.68-3.01,3.98-4.74,4.34ZM222.68,144.17l1.37-2.33c-.61-1.44-.71-2.75-.25-3.84.37-.88,1.95-2.51,2.81-2.15,1.55.65,3.53,1.6,4.51.32,1.27-1.67,2.31-3.08,4.75-2.44.76.2,2.42-.42,2.92-1.09,1.03-1.37,2.71-1.53,4.28-.35l3.86-.69,4.06,2.28c3.71-1.09,3.27.97,6.52,2.92.5.3,1.16.84,1.24,1.24.24,1.23-1.24,3.5-2.49,3.99-3.22,1.27-11.64-9.82-27.31,1.31l-4.91,4.38c-1.52,0-2.14-2.23-1.37-3.53ZM220.98,154.67c.58.15,1.03,1.61.75,2.11-.32.6-1.87,1.61-2.4,1.16-1.32-1.11.2-3.65,1.65-3.27Z"/>
      <path class="cls-1" d="M297.92,169.46l2.44-5.01c.88.33,1.36,1.17,2,1.93l1.01,1.19c.28.33,1.26-.51,1.49-.99l2.55-5.26c-.05-.83-.7-2.78-.1-3.24.8-.61,1.83-1.7,2.08-2.44l.3-.9c.06-.18.55-.2.73-.18,1.28.13-1.95,2.92.04,5.69l-1.64,3.69c-.61,1.37-1.54,3.09-2.89,3.62l-3.4,1.34-4.62.56Z"/>
      <path class="cls-1" d="M288.01,189.82l-3.57-3.78,4.51-4.75c1.57.88,1.11,2.42.78,3.96-.37,1.72-.36,2.59-1.72,4.57Z"/>
      <path class="cls-1" d="M269.93,215.55l-1.28-1.14,2.59-2.05c.26-.21,1.14-.13,1.36.1s0,1.24-.26,1.42l-2.41,1.67Z"/>
      <path d="M256.28,142.02c-3.22,1.27-11.64-9.82-27.31,1.31l-4.91,4.38c-1.52,0-2.14-2.23-1.37-3.53l1.37-2.33c-.61-1.44-.71-2.75-.25-3.84.37-.88,1.95-2.51,2.81-2.15,1.55.65,3.53,1.6,4.51.32,1.27-1.67,2.31-3.08,4.75-2.44.76.2,2.42-.42,2.92-1.09,1.03-1.37,2.71-1.53,4.28-.35l3.86-.69,4.06,2.28c3.71-1.09,3.27.97,6.52,2.92.5.3,1.16.84,1.24,1.24.24,1.23-1.24,3.5-2.49,3.99Z"/>
      <path d="M247.47,156.21l-6.26-.81-5.16-.86-5.95-1.19c-.63-.13-1.82-1.12-1.85-1.75s1.11-1.74,1.8-1.89l4.92-1.05c2.48-.53,4.11-1.07,6.29-2.48,2.31-1.48,6.13-.37,8.33,1.14l4.09-1.26c1.32.95,2.93,2.44,3.79,4.01-1.16,1.68-3.01,3.98-4.74,4.34-2.06.43-3.34-.02-5.25,1.79Z"/>
      <path d="M219.33,157.95c-1.32-1.11.2-3.65,1.65-3.27.58.15,1.03,1.61.75,2.11-.32.6-1.87,1.61-2.4,1.16Z"/>
    </g>
  </g>
</svg>